<svg xmlns="http://www.w3.org/2000/svg" viewBox="0 0 96.38 39.5"><path d="M89.48,18.36H85.7V3.45h3.56V5.12a3.56,3.56,0,0,1,3-2c2.45-.11,4.12,1.33,4.12,4.45V18.36h-3.9V7.12c0-1.34,0-2.45-.9-2.67a1.63,1.63,0,0,0-1.34.33,3,3,0,0,0-.78,2.34V18.36ZM25.17,4.45a5,5,0,0,0-3.34-1.34,5.24,5.24,0,0,0-3.34,1.34,8.6,8.6,0,0,0-2.56,6.45,8.45,8.45,0,0,0,2.56,6.46,5.23,5.23,0,0,0,3.34,1.33,5,5,0,0,0,3.34-1.33c1.67-1.34,2.56-3.68,2.56-6.46S26.83,5.78,25.17,4.45ZM23.72,10.9c0,2.78,0,5-.45,6.12a1.48,1.48,0,0,1-1.44.9,1.35,1.35,0,0,1-1.34-.9c-.56-1.11-.56-3.34-.56-6.12s0-5,.56-6.12a1.35,1.35,0,0,1,1.34-.9,1.48,1.48,0,0,1,1.44.9c.56,1.12.45,3.45.45,6.12ZM64,24v4h-.78c-.45-1.67-1.12-3.11-2.9-3.23a1.93,1.93,0,0,0-2.22,1.56c-.11,1,.22,1.89,2.22,3,2.56,1.45,4.57,2.12,4.57,5.12a4.88,4.88,0,0,1-5.12,4.79H55.32V33.71h.78c.56,2.9,1.45,4.68,3.56,4.79A2.13,2.13,0,0,0,62,36.27c0-1.44-.9-2.34-3-3.56-2.34-1.44-3.78-2.33-3.78-4.34C55.21,25.7,57.1,24,60.1,24Zm4.89-5.67V7.57c0-3.12-1.67-4.57-4.11-4.45a3.77,3.77,0,0,0-3.12,2.11A3.16,3.16,0,0,0,58.1,3.12a3.56,3.56,0,0,0-3,2V3.45H51.65v14.9h3.78V7.12c0-1.11.11-1.78.78-2.33a1.38,1.38,0,0,1,1.22-.34c.9.23.9,1.34.9,2.67V18.36H62.1V7a2.87,2.87,0,0,1,.78-2.23,1.4,1.4,0,0,1,1.22-.33c.9.22,1,1.34,1,2.67V18.35h3.79ZM30.3.33h3.9v18H30.3ZM48,18.36V.34h-3.9V4.56a2.3,2.3,0,0,0-2.23-1.33c-2.78,0-5,2.89-5.12,7.34-.11,3,.89,8,4.79,8a2.92,2.92,0,0,0,2.78-1.67v1.45H48ZM43.41,4.68c.78,1.11.78,3.78.78,5.89s.11,5.12-.78,6.34a1.36,1.36,0,0,1-1.22.66c-.78,0-1.22-.9-1.45-2.33s-.11-3-.11-4.79c0-3,.23-6.34,1.67-6.34a1.37,1.37,0,0,1,1.12.56ZM80.47,3.9c1,.55,1.67,1.44,1.67,3.45v11H78.46V16.69a3.31,3.31,0,0,1-3.34,2c-1.33,0-3.67-.66-3.67-4.11,0-3.23,2.12-3.9,4.45-4.9,2.12-.9,2.34-1,2.34-1.89V5.34c0-1-.56-1.44-1.67-1.44-.45.11-1.23.33-1.23.9s.66.66.78,1.67a1.83,1.83,0,0,1-2.22,2A1.71,1.71,0,0,1,72.12,6.8c-.11-2,2.11-3.67,5.22-3.67a5.78,5.78,0,0,1,3.12.78ZM78.24,9.46,77,10.24a3.35,3.35,0,0,0-1.56,2.89,13.6,13.6,0,0,0,0,3c.11,1.22.89,1.44,1.56,1.22s1.22-1.78,1.22-3.34V9.46ZM25.39,24.7c1,.66,1.56,1.45,1.56,3.45V39.28H23.39V37.61a3.4,3.4,0,0,1-3.34,1.89c-1.45,0-3.68-.56-3.68-4,0-3.22,2.12-3.9,4.34-4.89s2.45-1.11,2.45-1.89V26.26c0-1.11-.56-1.56-1.67-1.45-.44,0-1.22.23-1.22.78-.11.78.66.78.78,1.78.11,1.45-1.12,2-2.23,2A1.9,1.9,0,0,1,17,27.6C16.93,25.71,19.16,24,22.27,24a6,6,0,0,1,3.11.66Zm-2.23,5.56L21.94,31a3.38,3.38,0,0,0-1.56,2.9,13.59,13.59,0,0,0,0,3c0,1.34.78,1.56,1.45,1.23.89-.34,1.34-1.67,1.34-3.34V30.26Zm29.16-1.77c0-3.12-1.67-4.68-4.12-4.46a3.78,3.78,0,0,0-2.78,1.45V21.14H41.64V31.38c0,3.78-2.67,7.34-5.34,7.23-1.89,0-2.34-1.45-2.56-3A33.61,33.61,0,0,1,33.62,28c.23-1.78.66-3.23,2-3.23,1,0,1.11.66.66,1.12a2.25,2.25,0,0,0-.78,2.33c.33,1.34,2.44,1.56,3.45.56a2.87,2.87,0,0,0,.11-3.23C38.41,24.48,37.29,24,35.62,24c-2.12,0-6.12,1.89-6.12,7.9,0,6.45,4.11,7.56,6.45,7.56,2.67,0,5-2.34,5.67-4.23v4h3.79V28a2.94,2.94,0,0,1,.78-2.33,1.59,1.59,0,0,1,1.33-.34c.89.22.89,1.34.89,2.67V39.28h3.9V28.49ZM13.37,0V6.34h-.78C11.93,3.23,10.48.89,8.47.78,7.14.67,6.36,1.44,5.69,2.56c-.66,1.33-1,4.12-1,7.45a38.58,38.58,0,0,0,.45,7.12,2.39,2.39,0,0,0,2.22,2A2,2,0,0,0,9,18.48a5,5,0,0,0,.66-2.9v-3a2.24,2.24,0,0,0-.89-2.11,8,8,0,0,0-1.44-.34V9.35h6.23v15.9h-.78a13,13,0,0,0-1.11-3.1A3.69,3.69,0,0,0,8.47,20a2.7,2.7,0,0,0-3.12,2.67c0,2.22,1.34,2.78,3.79,4.11s5.34,2.45,5.34,6.35-3.23,6.12-6.9,6.12H1.68V31.62h.78c1,5.78,3.45,6.78,5.12,6.78a2.89,2.89,0,0,0,3.11-3.22c-.11-2.45-1.79-3.34-4.12-4.57-3.34-1.89-4.9-2.78-4.9-5.89.11-2.67,2.23-4.34,4.57-5-4.9-.56-6.35-5-6.23-9.79S2.79,0,8.24,0h5.12Z" style="fill:#64a8f0;fill-rule:evenodd"/></svg>